name D:\PhD\Datasets\SharingData_IBEC_VALDUCE\MO1_Comp_0001.mot
datacolumns 46
datarows 5
range 2.51000000 2.55000000
endheader
                time	         pelvis_tilt	     pelvis_rotation	           pelvis_tx	           pelvis_ty	           pelvis_tz	       hip_flexion_r	     hip_adduction_r	      hip_rotation_r	        knee_angle_r	       ankle_angle_r	    subtalar_angle_r	         mtp_angle_r	       hip_flexion_l	     hip_adduction_l	      hip_rotation_l	        knee_angle_l	       ankle_angle_l	    subtalar_angle_l	         mtp_angle_l	    lumbar_extension	      lumbar_bending	     lumbar_rotation	          arm_flex_r	           arm_add_r	           arm_rot_r	        elbow_flex_r	           pro_sup_r	        wrist_flex_r	         wrist_dev_r	          arm_flex_l	           arm_add_l	           arm_rot_l	        elbow_flex_l	           pro_sup_l	        wrist_flex_l	         wrist_dev_l	          end_eff_tx	          end_eff_ty	          end_eff_tz	             goal_tx	             goal_ty	             goal_tz	            elbow_tx	            elbow_ty	            elbow_tz	
          2.51000000	          0.00000000	          0.00000000	        389.15726002	        473.79972456	        273.55087496	          0.00000000	          0.00000000	          0.00000000	          0.00000000	          0.00000000	          0.00000000	          0.00000000	          0.00000000	          0.00000000	          0.00000000	          0.00000000	          0.00000000	          0.00000000	          0.00000000	        -11.34755325	         -6.28329277	         14.94625568	         59.96309280	        -22.59864044	         32.99956512	         87.56095123	         93.78846741	          0.00000000	          0.00000000	          0.00000000	          0.00000000	          0.00000000	          0.00000000	          0.00000000	          0.00000000	          0.00000000	        783.98512330	        594.89859596	        125.37245943	        870.98978451	        671.50190616	       -164.89964803	        647.08126149	        419.28719657	        482.13104567	
          2.52000000	          0.00000000	          0.00000000	        390.34937392	        473.48239566	        272.09920280	          0.00000000	          0.00000000	          0.00000000	          0.00000000	          0.00000000	          0.00000000	          0.00000000	          0.00000000	          0.00000000	          0.00000000	          0.00000000	          0.00000000	          0.00000000	          0.00000000	        -11.38805008	         -6.56522894	         15.28403378	         60.23622513	        -22.54254150	         32.82577515	         87.61084747	         93.65693665	          0.00000000	          0.00000000	          0.00000000	          0.00000000	          0.00000000	          0.00000000	          0.00000000	          0.00000000	          0.00000000	        785.42974440	        597.31363107	        120.82396654	        871.00335424	        671.50582714	       -164.87923833	        650.74292851	        420.57648610	        477.71858455	
          2.53000000	          0.00000000	          0.00000000	        391.37883860	        472.95522666	        270.46217215	          0.00000000	          0.00000000	          0.00000000	          0.00000000	          0.00000000	          0.00000000	          0.00000000	          0.00000000	          0.00000000	          0.00000000	          0.00000000	          0.00000000	          0.00000000	          0.00000000	        -11.21239281	         -6.76435518	         15.57569885	         60.36314392	        -22.45518494	         32.67697906	         87.62246704	         93.49922943	          0.00000000	          0.00000000	          0.00000000	          0.00000000	          0.00000000	          0.00000000	          0.00000000	          0.00000000	          0.00000000	        786.59333120	        599.71551513	        116.26013064	        870.98115250	        671.50384220	       -164.88478591	        654.39615726	        421.89096038	        473.60371054	
          2.54000000	          0.00000000	          0.00000000	        392.51364391	        472.63048649	        268.96600046	          0.00000000	          0.00000000	          0.00000000	          0.00000000	          0.00000000	          0.00000000	          0.00000000	          0.00000000	          0.00000000	          0.00000000	          0.00000000	          0.00000000	          0.00000000	          0.00000000	        -11.07874584	         -7.02445984	         15.96453762	         60.48417282	        -22.41396904	         32.37535858	         87.59072876	         93.47286224	          0.00000000	          0.00000000	          0.00000000	          0.00000000	          0.00000000	          0.00000000	          0.00000000	          0.00000000	          0.00000000	        787.85341900	        601.98141226	        111.61399517	        870.97966484	        671.43593890	       -164.86254288	        658.03845556	        423.32902249	        469.32539158	
          2.55000000	          0.00000000	          0.00000000	        393.62990848	        472.28328973	        267.41793599	          0.00000000	          0.00000000	          0.00000000	          0.00000000	          0.00000000	          0.00000000	          0.00000000	          0.00000000	          0.00000000	          0.00000000	          0.00000000	          0.00000000	          0.00000000	          0.00000000	        -11.09732628	         -7.34515810	         16.34710121	         60.77929306	        -22.42167854	         32.16230011	         87.64144897	         93.29302216	          0.00000000	          0.00000000	          0.00000000	          0.00000000	          0.00000000	          0.00000000	          0.00000000	          0.00000000	          0.00000000	        789.04308839	        604.31958028	        106.97227079	        870.99489184	        671.49967718	       -164.89828727	        661.62459362	        424.63976015	        465.05523610	
